<svg xmlns="http://www.w3.org/2000/svg" viewBox="0 0 390.63 421.88"><defs><style>.cls-1{fill:#d52b1e;}</style></defs><title>canada_leaf</title><g id="Layer_2" data-name="Layer 2"><g id="Layer_1-2" data-name="Layer 1"><path class="cls-1" d="M195.3,0,161.19,63.63c-3.87,6.92-10.81,6.27-17.74,2.41l-24.7-12.79L137.16,151c3.87,17.85-8.55,17.85-14.68,10.13l-43.1-48.25-7,24.5c-.81,3.22-4.35,6.6-9.68,5.79L8.2,131.7l14.32,52c3.06,11.58,5.45,16.38-3.09,19.43L0,212.3l93.82,76.21a12.28,12.28,0,0,1,4.27,12.76l-8.21,26.95c32.3-3.72,61.25-9.33,93.57-12.78,2.85-.3,7.63,4.4,7.61,7.71l-4.28,98.72h15.71L200,323.36c0-3.31,4.31-8.23,7.17-7.92,32.32,3.45,61.27,9.05,93.57,12.78l-8.21-26.95a12.28,12.28,0,0,1,4.27-12.76l93.82-76.21-19.43-9.13c-8.55-3.05-6.16-7.85-3.09-19.43l14.32-52-54.5,11.46c-5.32.8-8.87-2.57-9.68-5.79l-7-24.5-43.1,48.25c-6.13,7.72-18.55,7.72-14.68-10.13l18.41-97.73L247.18,66c-6.94,3.86-13.87,4.5-17.74-2.41"/></g></g></svg>