<?xml version="1.0" encoding="utf-8"?>
<!-- Generator: Adobe Illustrator 21.0.2, SVG Export Plug-In . SVG Version: 6.00 Build 0)  -->
<svg version="1.1" id="Layer_1" xmlns="http://www.w3.org/2000/svg" xmlns:xlink="http://www.w3.org/1999/xlink" x="0px" y="0px"
	 viewBox="0 0 600 360" style="enable-background:new 0 0 600 360;" xml:space="preserve">
<style type="text/css">
	.st0{fill:#FCD116;}
	.st1{fill:#CE1126;}
</style>
<g>
	<g>
		<g id="c">
			<path id="t" class="st0" d="M300,140.4l-12.2,37.7l18.8,6.1"/>
			<g transform="scale(-1,1)">
				<path id="t_1_" class="st0" d="M300,140.4l12.2,37.7l-18.8,6.1"/>
			</g>
		</g>
		<g>
			<g id="c_1_">
				<path id="t_2_" class="st0" d="M337.7,167.8h-39.6v19.8"/>
				<g transform="rotate(72)">
					<path id="t_3_" class="st0" d="M337.7,167.8l-32,23.3L294,175"/>
				</g>
			</g>
			<g>
				<g id="c_2_">
					<path id="t_4_" class="st0" d="M323.3,212L311,174.4l-18.8,6.1"/>
					<g transform="rotate(144)">
						<path id="t_5_" class="st0" d="M323.3,212l-32-23.3l11.6-16"/>
					</g>
				</g>
				<g>
					<g id="c_3_">
						<path id="t_6_" class="st0" d="M276.7,212l32-23.3l-11.6-16"/>
						<g transform="rotate(216)">
							<path id="t_7_" class="st0" d="M276.7,212l12.2-37.7l18.8,6.1"/>
						</g>
					</g>
					<g id="s">
						<g id="c_4_">
							<path id="t_8_" class="st0" d="M262.3,167.8l32,23.3l11.6-16"/>
							<g transform="translate(250,150) scale(33)">
								<path id="t_9_" class="st0" d="M262.3,167.8h39.6v19.8"/>
							</g>
						</g>
					</g>
					<g>
						<g>
							<g>
								<g id="c_5_">
									<path id="t_10_" class="st0" d="M180,1.8l-7.2,22.3l11.1,3.6"/>
									<g transform="scale(-1,1)">
										<path id="t_11_" class="st0" d="M180,1.8l7.2,22.3l-11.1,3.6"/>
									</g>
								</g>
								<g>
									<g id="c_6_">
										<path id="t_12_" class="st0" d="M202.3,18h-23.4v11.7"/>
										<g transform="rotate(72)">
											<path id="t_13_" class="st0" d="M202.3,18l-18.9,13.8l-6.9-9.5"/>
										</g>
									</g>
									<g>
										<g id="c_7_">
											<path id="t_14_" class="st0" d="M193.8,44.1l-7.2-22.3l-11.1,3.6"/>
											<g transform="rotate(144)">
												<path id="t_15_" class="st0" d="M193.8,44.1l-18.9-13.8l6.9-9.5"/>
											</g>
										</g>
										<g>
											<g id="c_8_">
												<path id="t_16_" class="st0" d="M166.2,44.1l18.9-13.8l-6.9-9.5"/>
												<g transform="rotate(216)">
													<path id="t_17_" class="st0" d="M166.2,44.1l7.2-22.3l11.1,3.6"/>
												</g>
											</g>
											<g id="s_1_">
												<g id="c_9_">
													<path id="t_18_" class="st0" d="M157.7,18l18.9,13.8l6.9-9.5"/>
													<g id="s2" transform="translate(250,21) scale(19.5)">
														<path id="t_19_" class="st0" d="M157.7,18h23.4v11.7"/>
													</g>
												</g>
											</g>
											<g>
												<g>
													<g id="c_10_">
														<path id="t_20_" class="st0" d="M300,1.8l-7.2,22.3l11.1,3.6"/>
														<g transform="scale(-1,1)">
															<path id="t_21_" class="st0" d="M300,1.8l7.2,22.3l-11.1,3.6"/>
														</g>
													</g>
													<g>
														<g id="c_11_">
															<path id="t_22_" class="st0" d="M322.3,18h-23.4v11.7"/>
															<g transform="rotate(72)">
																<path id="t_23_" class="st0" d="M322.3,18l-18.9,13.8l-6.9-9.5"/>
															</g>
														</g>
														<g>
															<g id="c_12_">
																<path id="t_24_" class="st0" d="M313.8,44.1l-7.2-22.3l-11.1,3.6"/>
																<g transform="rotate(144)">
																	<path id="t_25_" class="st0" d="M313.8,44.1l-18.9-13.8l6.9-9.5"/>
																</g>
															</g>
															<g>
																<g id="c_13_">
																	<path id="t_26_" class="st0" d="M286.2,44.1l18.9-13.8l-6.9-9.5"/>
																	<g transform="rotate(216)">
																		<path id="t_27_" class="st0" d="M286.2,44.1l7.2-22.3l11.1,3.6"/>
																	</g>
																</g>
																<g id="s_2_">
																	<g id="c_14_">
																		<path id="t_28_" class="st0" d="M277.7,18l18.9,13.8l6.9-9.5"/>
																		<g id="s2_1_" transform="translate(250,21) scale(19.5)">
																			<path id="t_29_" class="st0" d="M277.7,18h23.4v11.7"/>
																		</g>
																	</g>
																</g>
																<g>
																	<g>
																		<g>
																			<g id="c_15_">
																				<path id="t_30_" class="st0" d="M420,1.8l-7.2,22.3l11.1,3.6"/>
																				<g transform="scale(-1,1)">
																					<path id="t_31_" class="st0" d="M420,1.8l7.2,22.3l-11.1,3.6"/>
																				</g>
																			</g>
																			<g>
																				<g id="c_16_">
																					<path id="t_32_" class="st0" d="M442.3,18h-23.4v11.7"/>
																					<g transform="rotate(72)">
																						<path id="t_33_" class="st0" d="M442.3,18l-18.9,13.8l-6.9-9.5"/>
																					</g>
																				</g>
																				<g>
																					<g id="c_17_">
																						<path id="t_34_" class="st0" d="M433.8,44.1l-7.2-22.3l-11.1,3.6"/>
																						<g transform="rotate(144)">
																							<path id="t_35_" class="st0" d="M433.8,44.1l-18.9-13.8l6.9-9.5"/>
																						</g>
																					</g>
																					<g>
																						<g id="c_18_">
																							<path id="t_36_" class="st0" d="M406.2,44.1l18.9-13.8l-6.9-9.5"/>
																							<g transform="rotate(216)">
																								<path id="t_37_" class="st0" d="M406.2,44.1l7.2-22.3l11.1,3.6"/>
																							</g>
																						</g>
																						<g id="s_3_">
																							<g id="c_19_">
																								<path id="t_38_" class="st0" d="M397.7,18l18.9,13.8l6.9-9.5"/>
																								<g id="s2_2_" transform="translate(250,21) scale(19.5)">
																									<path id="t_39_" class="st0" d="M397.7,18h23.4v11.7"/>
																								</g>
																							</g>
																						</g>
																						<g>
																							<g>
																								<g>
																									<g id="c_20_">
																										<path id="t_40_" class="st0" d="M180,311.4l-7.2,22.3l11.1,3.6"/>
																										<g transform="scale(-1,1)">
																											<path id="t_41_" class="st0" d="M180,311.4l7.2,22.3l-11.1,3.6"/>
																										</g>
																									</g>
																									<g>
																										<g id="c_21_">
																											<path id="t_42_" class="st0" d="M202.3,327.6l-23.4,11.7"/>
																											<g transform="rotate(72)">
																												<polyline class="st0" points="183.3,341.3 198.7,327.6 161,327.6 181.7,340.3 183.3,341.3 183.3,341.3 
																													176.4,331.9 																												"/>
																											</g>
																										</g>
																										<g>
																											<g id="c_22_">
																												<path id="t_44_" class="st0" d="M193.8,353.7l-7.2-22.3l-11.1,3.6"/>
																												<g transform="rotate(144)">
																													<path id="t_45_" class="st0" d="M193.8,353.7L174.8,340l6.9-9.5"/>
																												</g>
																											</g>
																											<g transform="rotate(288)">
																												<g id="c_23_">
																													<path id="t_46_" class="st0" d="M166.2,353.7l18.9-13.8l-6.9-9.5"/>
																													<path id="t_47_" class="st0" d="M166.2,353.7l7.2-22.3l11.1,3.6"/>
																												</g>
																												<g id="s2_3_" transform="translate(250,21) scale(19.5)">
																												</g>
																											</g>
																											<g>
																												<g id="s2_4_" transform="translate(250,21) scale(19.5)">
																												</g>
																												<g>
																													<path class="st1" d="M81.3,180.5c5.4,10.1,15.9,21,25.1,24.9c0.1-10.2-3.5-23.3-8.4-33.8
																														C98,171.6,81.3,180.5,81.3,180.5z"/>
																													<path class="st0" d="M72.1,146c7.8,16.3-20.3,55.3,26.6,64.4c-5.8-7.9-9.5-20.9-8.1-31.4
																														c9.8,3.7,20.2,14.7,24.4,23.1C127.3,157.5,83.5,160.2,72.1,146z"/>
																												</g>
																											</g>
																										</g>
																									</g>
																								</g>
																							</g>
																						</g>
																					</g>
																				</g>
																			</g>
																		</g>
																	</g>
																</g>
															</g>
														</g>
													</g>
												</g>
											</g>
										</g>
									</g>
								</g>
							</g>
						</g>
					</g>
				</g>
			</g>
		</g>
	</g>
</g>
</svg>
